<svg xmlns="http://www.w3.org/2000/svg" viewBox="0 0 595.28 353.36"><defs><style>.a{fill:#305979;}.b{fill:#f9b233;}</style></defs><path class="a" d="M75.74,73.15v77.51H67.2V73.15H55.53V64.6H67.2V26.89h8.54V64.6h20v8.55Z"/><path class="a" d="M116.58,105.86q0,17.51,9.38,27.71Q135.76,144,152.84,144a41.39,41.39,0,0,0,15.84-2.91q9-3.75,16-15.21l7.71,3.54a41.51,41.51,0,0,1-25,20.83,47.41,47.41,0,0,1-14.59,2.09q-19.38,0-31.88-12.71-12.72-12.7-12.71-31.88,0-19.38,12.5-31.88,12.7-12.72,32.09-12.71Q172,63.15,184.51,75q12.7,11.88,12.71,30.84Zm58.76-27.29a37.36,37.36,0,0,0-22.5-7.09q-26.67,0-35,26.26h69.81A29,29,0,0,0,175.34,78.57Z"/><path class="a" d="M315,150.66V91.28a20,20,0,0,0-5.21-13.76q-5.22-5.82-15-5.83-20.22,0-20.21,19.59v59.38H266V91.28q0-8.76-5.83-14a21.48,21.48,0,0,0-28.76-.21q-5.83,5.2-5.83,14.17v59.38H217V64.6h8.54v8.55q6.25-9.8,20.21-9.8,16.66,0,24.59,13.55,7.5-13.55,24.38-13.55,12.92,0,20.83,7.3,7.92,7.5,7.92,20.63v59.38Z"/><path class="a" d="M426.22,139.2q-12.93,12.93-31.68,12.92-21.45,0-35.42-17.5v56.47h-8.54V64.6h8.54V80.86q13.33-17.51,35.42-17.51,18.76,0,31.47,12.71Q438.93,89,438.93,107.74T426.22,139.2ZM420,82.32a35.94,35.94,0,0,0-61.47,25.42A36,36,0,1,0,420,82.32Z"/><path class="a" d="M312.09,262c-.9.73-1.87,1.47-2.87,2.16-9.51,6.71-22.75,12-22.75,12L295,226.32c1.89-11,.48-15.56-11.63-15.56-5.81,0-8.17,1.41-8.17,1.41s1.57,3.62-.16,13.53l-10.06,60c-12.73,6.29-20.9,11-28.76,17.75-7.7,6.6-13.2,15.09-13.2,24.38,0,9.72,6.93,16.49,17.6,16.49,23.26,0,37.87-20.28,44-56.74l.31-1.88c9.27-4.56,19.18-10.06,25-14.47.24-.18.48-.36.7-.54,2.69-2.07,4.18-3.66,4.48-5.11A2.82,2.82,0,0,0,312.09,262ZM239,334c-4.86,0-7.22-3-7.22-7.08,0-5.5,3.14-10.84,9.27-16.82,4.72-4.55,11.78-9.1,22.16-14.44C258.64,320.78,250.16,334,239,334Zm52.5-158.11a11.11,11.11,0,0,0-11,11.32,9,9,0,0,0,9.44,9.42,11,11,0,0,0,11.31-10.85C301.24,180.11,297.46,175.87,291.5,175.87Z"/><path class="a" d="M399.62,238.42a28.86,28.86,0,0,1-2.93,3.44c-3.16,3.24-8.74,7.74-16.09,8.81a65.17,65.17,0,0,0,.79-9.89c0-17.92-10.54-30-28.91-30-26.88,0-43.54,20.11-43.54,48.56a39.35,39.35,0,0,0,.28,4.83,33.8,33.8,0,0,0,1.37,6.57c3.86,12.15,14.2,18.63,27.26,18.63,21.38,0,35.84-12.75,41.18-31.43a35.52,35.52,0,0,0,16-6.26c4.2-3,7-6.54,7.42-9.3C402.76,240,401.66,238.42,399.62,238.42Zm-40.54,15.25c-4.1,18.86-11.17,27.81-19.66,27.81-6.6,0-10.36-5.5-10.36-15.39a115.59,115.59,0,0,1,1.4-16.2c4.41-23.41,12.58-31.43,20.45-31.43,5.81,0,9.41,4.24,10.2,12.1-5.18,1.1-8,5.34-8,10.7A15,15,0,0,0,359.08,253.67Z"/><path class="a" d="M444.41,210.76c-10.05,0-19,6.6-25.61,18.85l9.41-55.16c1.89-11,.48-15.55-11.63-15.55-5.81,0-8.17,1.41-8.17,1.41s1.57,3.62-.14,13.51l-11.58,68-1.66,9.8-1.85,10.81a55.53,55.53,0,0,0-.79,8.17c0,4.72,1.1,8,3.46,10.84,4.08,5,13.82,7.87,28,7.87,18.54,0,33.46-12.58,39.91-31.43.62-1.65,1.59-6,1.83-7l.05-.24A74,74,0,0,0,467,237C467,220.67,459,210.76,444.41,210.76Zm0,42.58c-4.4,16-14.15,28.14-25.16,28.14a24.73,24.73,0,0,1-7.38-1.09,26.2,26.2,0,0,1-.31-4.41,45.65,45.65,0,0,1,.78-8.17c3-16,7.39-25.45,12-32.53,5.34-8.49,9.89-12.42,14.61-12.42,4.24,0,6.75,2.36,7.7,7.7C446.61,230.56,449.24,239.32,444.41,253.34Z"/><path class="b" d="M527.48,139.2q-12.91,12.93-31.67,12.92t-31.47-12.71q-12.91-12.91-12.91-31.67a42.84,42.84,0,0,1,12.91-31.47q12.72-13.12,31.47-13.12a42.81,42.81,0,0,1,31.46,12.91Q540.18,89,540.19,107.74T527.48,139.2Zm-6-57.09a34.48,34.48,0,0,0-25.63-10.63q-14.6,0-25.21,10.84-10.85,10.83-10.84,25.42a36.05,36.05,0,1,0,72.1,0A34.87,34.87,0,0,0,521.44,82.11Z"/><path class="b" d="M518.14,283.75a30.82,30.82,0,0,1-20.66,7.31q-20.66,0-31-18.72l7.53-4.52a30,30,0,0,0,8.83,10.33q5.37,4.1,14.63,4.09,20.22,0,20.23-17.22,0-7.53-7.1-13.12a47.18,47.18,0,0,0-6.13-2.91q-4-1.62-9.8-3.76-10.76-3.89-15.49-7.75-6.88-5.59-6.89-16.14a20.52,20.52,0,0,1,6.89-15.5q6.66-6.66,17.43-6.67A34.3,34.3,0,0,1,521.8,209.5l-6.46,5.6q-7.32-7.32-18.72-7.32-15.5,0-15.49,13.56a12.22,12.22,0,0,0,4.73,9.9q3.87,3,12.27,5.81a125.94,125.94,0,0,1,12.05,4.84,47.78,47.78,0,0,1,7.1,4q9.26,7.11,9.25,19.15Q526.53,276.65,518.14,283.75Z"/><circle class="b" cx="496.92" cy="221.73" r="2.74"/><circle class="b" cx="496.9" cy="262.81" r="2.74"/><polygon class="b" points="501.45 173.05 485.58 179.56 469.72 186.07 469.72 173.05 469.72 160.03 485.58 166.54 501.45 173.05"/><polygon class="b" points="488.15 173.05 504.02 166.54 519.88 160.03 519.88 173.05 519.88 186.07 504.02 179.56 488.15 173.05"/><path d="M465.57,250.91c-.24,1-1.21,5.36-1.83,7Z"/></svg>