<svg xmlns="http://www.w3.org/2000/svg" viewBox="0 0 595.28 353.36"><defs><style>.a{fill:#fff;}.b{fill:#f9b233;}</style></defs><path class="a" d="M76.21,66.94v77.52H67.67V66.94H56V58.4H67.67V20.69h8.54V58.4h20v8.54Z"/><path class="a" d="M117.05,99.66q0,17.5,9.38,27.71,9.78,10.42,26.88,10.42a41.11,41.11,0,0,0,15.83-2.92q9-3.75,16.05-15.21l7.71,3.54a41.52,41.52,0,0,1-25,20.84,47.36,47.36,0,0,1-14.58,2.08q-19.38,0-31.88-12.71-12.72-12.7-12.71-31.88,0-19.38,12.5-31.88,12.71-12.71,32.09-12.71,19.17,0,31.67,11.88,12.71,11.88,12.71,30.84Zm58.76-27.3a37.42,37.42,0,0,0-22.5-7.08q-26.68,0-35,26.25h69.8A29,29,0,0,0,175.81,72.36Z"/><path class="a" d="M315.42,144.46V85.07a20,20,0,0,0-5.21-13.75q-5.22-5.83-15-5.83Q275,65.49,275,85.07v59.39h-8.54V85.07q0-8.75-5.84-14a21.49,21.49,0,0,0-28.75-.21Q226,76.12,226,85.07v59.39h-8.55V58.4H226v8.54q6.24-9.78,20.21-9.79,16.67,0,24.59,13.55,7.5-13.55,24.37-13.55,12.93,0,20.84,7.29Q324,71.94,324,85.07v59.39Z"/><path class="a" d="M426.68,133Q413.77,145.92,395,145.92q-21.47,0-35.42-17.51v56.47h-8.54V58.4h8.54V74.65Q372.93,57.16,395,57.15q18.75,0,31.47,12.71,12.91,12.93,12.91,31.67T426.68,133Zm-6.25-56.89A35.95,35.95,0,0,0,359,101.53,36.28,36.28,0,0,0,395,137.58a35.93,35.93,0,0,0,36.05-36.05A34.68,34.68,0,0,0,420.43,76.11Z"/><path class="a" d="M312.55,255.79c-.89.73-1.86,1.46-2.87,2.16-9.51,6.71-22.74,12-22.74,12l8.48-49.82c1.88-11,.48-15.56-11.63-15.56-5.81,0-8.17,1.4-8.17,1.4s1.57,3.62-.17,13.53l-10.05,60c-12.73,6.29-20.9,11-28.76,17.76-7.7,6.6-13.21,15.08-13.21,24.37,0,9.73,6.93,16.49,17.61,16.49,23.26,0,37.87-20.27,44-56.73l.31-1.89c9.27-4.55,19.18-10,25-14.46.24-.18.47-.37.69-.55,2.69-2.06,4.19-3.66,4.48-5.1A2.81,2.81,0,0,0,312.55,255.79Zm-73.08,72c-4.86,0-7.22-3-7.22-7.08,0-5.5,3.14-10.84,9.27-16.82,4.71-4.55,11.77-9.11,22.16-14.45C259.11,314.58,250.62,327.78,239.47,327.78ZM292,169.67A11.1,11.1,0,0,0,281,181c0,5.5,3.76,9.41,9.43,9.41a11,11,0,0,0,11.32-10.84C301.71,173.91,297.93,169.67,292,169.67Z"/><path class="a" d="M400.08,232.22a28.08,28.08,0,0,1-2.92,3.44c-3.17,3.23-8.74,7.73-16.09,8.81a66.51,66.51,0,0,0,.78-9.89c0-17.92-10.53-30-28.9-30-26.88,0-43.54,20.11-43.54,48.56a41.61,41.61,0,0,0,.27,4.83,34.45,34.45,0,0,0,1.37,6.56c3.86,12.16,14.21,18.63,27.27,18.63,21.37,0,35.84-12.74,41.17-31.43a35.36,35.36,0,0,0,16-6.25c4.21-3,6.95-6.55,7.43-9.31C403.23,233.79,402.13,232.22,400.08,232.22Zm-40.53,15.25c-4.1,18.85-11.18,27.81-19.66,27.81-6.6,0-10.37-5.5-10.37-15.39a114,114,0,0,1,1.41-16.2c4.41-23.41,12.58-31.44,20.44-31.44,5.82,0,9.42,4.25,10.21,12.11-5.18,1.1-8,5.34-8,10.69A14.93,14.93,0,0,0,359.55,247.47Z"/><path class="a" d="M444.88,204.56c-10.06,0-19,6.6-25.62,18.85l9.42-55.17c1.88-11,.48-15.54-11.63-15.54-5.81,0-8.17,1.41-8.17,1.41s1.57,3.62-.15,13.51l-11.57,68-1.67,9.8-1.84,10.81a55.53,55.53,0,0,0-.79,8.17c0,4.72,1.1,8,3.46,10.84,4.07,5,13.82,7.86,28,7.86,18.54,0,33.46-12.58,39.92-31.43.62-1.64,1.59-6,1.83-7l0-.24a74,74,0,0,0,1.41-13.68C467.5,214.47,459.49,204.56,444.88,204.56Zm0,42.58c-4.41,16-14.15,28.14-25.16,28.14a24.46,24.46,0,0,1-7.39-1.1,27.08,27.08,0,0,1-.31-4.4,46,46,0,0,1,.79-8.18c3-16,7.39-25.45,12-32.52,5.34-8.49,9.89-12.42,14.61-12.42,4.24,0,6.74,2.36,7.7,7.7C447.08,224.36,449.71,233.12,444.88,247.14Z"/><path class="b" d="M528,133Q515,145.92,496.28,145.92t-31.47-12.71q-12.92-12.93-12.92-31.68a42.82,42.82,0,0,1,12.92-31.46q12.7-13.12,31.47-13.13a42.82,42.82,0,0,1,31.46,12.92q12.91,12.93,12.92,31.67T528,133Zm-6-57.1a34.51,34.51,0,0,0-25.63-10.62q-14.59,0-25.22,10.83Q460.23,87,460.23,101.53a36.26,36.26,0,0,0,36,36.05,35.92,35.92,0,0,0,36-36.05A34.87,34.87,0,0,0,521.91,75.9Z"/><path class="b" d="M518.61,277.54A30.85,30.85,0,0,1,498,284.86q-20.65,0-31-18.72l7.53-4.52A30,30,0,0,0,483.32,272Q488.69,276,498,276q20.22,0,20.23-17.22,0-7.53-7.1-13.13a46.28,46.28,0,0,0-6.14-2.9q-4-1.62-9.79-3.77-10.75-3.87-15.49-7.75-6.9-5.6-6.89-16.14a20.46,20.46,0,0,1,6.89-15.49q6.66-6.67,17.43-6.67a34.26,34.26,0,0,1,25.18,10.33l-6.46,5.59q-7.32-7.3-18.72-7.31-15.49,0-15.5,13.55a12.22,12.22,0,0,0,4.74,9.9q3.87,3,12.26,5.81a129.14,129.14,0,0,1,12.05,4.84,47.35,47.35,0,0,1,7.11,4q9.24,7.1,9.25,19.15Q527,270.45,518.61,277.54Z"/><circle class="b" cx="497.38" cy="215.52" r="2.74"/><circle class="b" cx="497.37" cy="256.61" r="2.74"/><polygon class="b" points="501.92 166.85 486.05 173.36 470.18 179.87 470.18 166.85 470.18 153.83 486.05 160.34 501.92 166.85"/><polygon class="b" points="488.62 166.85 504.48 160.34 520.35 153.83 520.35 166.85 520.35 179.87 504.48 173.36 488.62 166.85"/><path d="M466,244.71c-.24,1-1.21,5.36-1.83,7Z"/></svg>